<svg width="35" height="35" viewBox="0 0 35 35" fill="none" xmlns="http://www.w3.org/2000/svg">
<rect x="0.5" y="0.5" width="34" height="34" rx="17" stroke="#4285F4" stroke-width="2"/>
<path stroke-width="2" fill-rule="evenodd" clip-rule="evenodd" d="M25.6667 17.5183C25.6667 17.7504 25.5745 17.973 25.4104 18.1371C25.2463 18.3012 25.0237 18.3934 24.7916 18.3934H12.3802L17.2314 23.0135C17.3181 23.0922 17.3882 23.1875 17.4374 23.2937C17.4866 23.4 17.5141 23.5151 17.518 23.6321C17.522 23.7491 17.5024 23.8658 17.4604 23.9751C17.4185 24.0844 17.355 24.1842 17.2738 24.2686C17.1925 24.353 17.0952 24.4201 16.9875 24.4662C16.8799 24.5122 16.764 24.5362 16.6469 24.5367C16.5298 24.5371 16.4138 24.5141 16.3058 24.4689C16.1978 24.4237 16.0999 24.3573 16.018 24.2736L9.60111 18.1484C9.51642 18.0667 9.44906 17.9689 9.40305 17.8606C9.35704 17.7524 9.33333 17.636 9.33333 17.5183C9.33333 17.4007 9.35704 17.2843 9.40305 17.1761C9.44906 17.0678 9.51642 16.9699 9.60111 16.8883L16.018 10.7631C16.0999 10.6794 16.1978 10.613 16.3058 10.5678C16.4138 10.5226 16.5298 10.4995 16.6469 10.5C16.764 10.5005 16.8799 10.5244 16.9875 10.5705C17.0952 10.6165 17.1925 10.6837 17.2738 10.7681C17.355 10.8524 17.4185 10.9522 17.4604 11.0616C17.5024 11.1709 17.522 11.2875 17.518 11.4046C17.5141 11.5216 17.4866 11.6367 17.4374 11.7429C17.3882 11.8492 17.3181 11.9445 17.2314 12.0231L12.3802 16.6433H24.7916C25.0237 16.6433 25.2463 16.7355 25.4104 16.8996C25.5745 17.0637 25.6667 17.2863 25.6667 17.5183Z" fill="#4285F4"/>
</svg>
