<svg width="164" height="48" viewBox="0 0 164 48" fill="none" xmlns="http://www.w3.org/2000/svg">
<mask id="mask0_73586_475" style="mask-type:luminance" maskUnits="userSpaceOnUse" x="-13" y="-16" width="189" height="79">
<path d="M-12.1182 -15.0448H175.228V62.2609H-12.1182V-15.0448Z" fill="white"/>
</mask>
<g mask="url(#mask0_73586_475)">
<path d="M28.7161 28.7079C28.7161 30.5175 27.9974 31.8319 26.5638 32.6719C25.4247 33.3403 23.7899 33.6606 21.6576 33.6606C19.529 33.6606 17.895 33.3158 16.7314 32.5967C15.3711 31.7322 14.6739 30.3669 14.6739 28.4841V23.9276C16.5803 23.6073 20.669 22.9631 20.669 22.9631V28.6598C20.669 29.0557 20.7415 29.3778 20.9137 29.6238C21.089 29.8235 21.3612 29.9232 21.7084 29.9232C22.0559 29.9232 22.3015 29.8235 22.476 29.6238C22.6512 29.3778 22.726 29.0557 22.726 28.6598V23.7568H28.7161V28.7079ZM59.2782 33.3158H53.3103V32.4995C52.9893 32.8205 52.4939 33.093 51.8234 33.3158C51.2044 33.5392 50.4608 33.6606 49.5956 33.6606C48.333 33.6606 47.2669 33.3403 46.4482 32.6719C45.6344 32.0041 45.2358 31.2122 45.2358 30.2669V20.6102C47.1934 20.4863 49.198 20.3642 51.2306 20.2645V28.7596C51.2306 29.5022 51.5781 29.8741 52.2706 29.8741C52.6158 29.8741 52.8634 29.7993 53.0381 29.6238C53.2104 29.4029 53.3103 29.1285 53.3103 28.7827V20.1414C55.2679 20.0416 57.2715 19.9658 59.2782 19.8931V33.3158ZM67.7 19.6428V22.81C67.4348 22.9271 67.2382 23.0535 67.105 23.1867C66.8088 23.4834 66.658 23.8566 66.658 24.3023V28.7596C66.658 29.1285 66.7577 29.4029 66.9325 29.6238C67.1193 29.7915 67.3744 29.8695 67.7 29.8741V33.51C67.1528 33.6172 66.4613 33.6606 65.5941 33.6606C63.8115 33.6606 62.548 33.3403 61.7802 32.7208C61.0368 32.0769 60.6652 31.1125 60.6652 29.8235V24.9205C60.6652 22.9631 62.004 21.3281 64.678 20.0416C64.9502 19.9177 65.2247 19.7934 65.47 19.6944L67.7 19.6428ZM44.1719 28.7079C44.1719 30.2669 43.6499 31.4582 42.6615 32.2756L44.2696 35.2737H39.316L38.4495 33.6364C38.0534 33.6606 37.6598 33.6606 37.2101 33.6606C35.0584 33.6606 33.3997 33.3158 32.2087 32.5967C30.7975 31.7322 30.106 30.3669 30.106 28.4841V21.8992C32.0608 21.6764 34.0673 21.5039 36.0984 21.3052V28.6598C36.0984 29.0557 36.1709 29.3778 36.3459 29.6238C36.5184 29.8235 36.7901 29.9232 37.1401 29.9232C37.4846 29.9232 37.7324 29.8235 37.9051 29.6238C38.0806 29.3778 38.1796 29.0557 38.1796 28.6598V21.1295C40.1371 20.9834 42.1171 20.8331 44.1719 20.685V28.7079ZM87.9581 33.3158H84.1688C81.5674 33.3158 79.9835 32.9706 79.3887 32.2756C78.796 31.5569 78.5215 29.9469 78.5215 27.4204V19.4972L81.6424 19.4705L84.5161 19.4972V27.3741C84.5161 28.0877 84.7619 28.5841 85.2345 28.8824C85.58 29.0794 86.1269 29.1791 86.8436 29.1791H87.9581V33.3158ZM110.422 20.1645V33.3158H104.427V19.9177C106.459 19.99 108.44 20.0658 110.422 20.1645ZM103.264 28.7079C103.264 30.5419 102.57 31.8777 101.184 32.6719C100.069 33.3403 98.4593 33.6606 96.3287 33.6606C94.174 33.6606 92.4912 33.3158 91.3245 32.5967C89.9159 31.7322 89.1965 30.3669 89.1965 28.4841V19.5214C91.2276 19.5463 93.2343 19.5947 95.1911 19.6211V28.6598C95.1911 29.0557 95.2895 29.3778 95.4613 29.6238C95.6358 29.8235 95.882 29.9232 96.2318 29.9232C96.5765 29.9232 96.851 29.8235 97.0237 29.6238C97.1957 29.3778 97.2705 29.0557 97.2705 28.6598V19.6692C99.2993 19.7211 101.284 19.7934 103.264 19.8661V28.7079ZM125.728 33.3158H119.735V20.7331C121.763 20.8595 123.772 21.0323 125.728 21.1811V33.3158ZM67.7 33.51V29.8741H67.7488C68.0228 29.8741 68.2686 29.7993 68.4164 29.6238C68.6425 29.4029 68.7392 29.1285 68.7392 28.7596V22.4683C68.324 22.5701 67.9742 22.6836 67.7 22.81V19.6428C70.0144 19.5876 72.3539 19.5415 74.7325 19.5214V33.3158H69.4339V32.3753C69.1351 32.9205 68.6914 33.2652 68.0953 33.4155C67.9719 33.45 67.8407 33.4805 67.7 33.51ZM133.962 21.975V22.8131C133.7 22.9286 133.498 23.0561 133.355 23.1867C133.058 23.4834 132.934 23.8566 132.934 24.3023V28.7596C132.934 29.1285 133.01 29.4029 133.18 29.6238C133.371 29.794 133.634 29.8695 133.962 29.8741V33.51C133.423 33.6172 132.711 33.6606 131.844 33.6606C130.06 33.6606 128.798 33.3403 128.054 32.7208C127.311 32.0769 126.94 31.1125 126.94 29.8235V24.9205C126.94 23.6073 127.51 22.4683 128.698 21.4525C130.489 21.618 132.242 21.7925 133.962 21.975ZM148.439 33.3158H142.445V23.0122C144.526 23.2867 146.529 23.5831 148.439 23.9034V33.3158ZM133.962 33.51V29.8741H133.998C134.295 29.8741 134.518 29.7993 134.693 29.6238C134.89 29.4029 134.989 29.1285 134.989 28.7596V22.4683C134.582 22.5701 134.239 22.6836 133.962 22.8131V21.975C136.379 22.2352 138.723 22.5121 140.985 22.8178V33.3158H135.682V32.3753C135.385 32.9205 134.941 33.2652 134.348 33.4155C134.227 33.45 134.101 33.4805 133.962 33.51Z" fill="#585666"/>
<path d="M21.6938 22.3709C13.1217 23.569 5.7447 25.0109 -0.0874634 26.6527C3.46104 25.0882 8.48212 23.6702 14.6769 22.4195V13.8738C14.6769 12.0421 15.3447 10.6798 16.7045 9.83752C17.8703 9.06975 19.5272 8.69783 21.6596 8.69783L21.6938 8.70035V12.4878C21.405 12.4924 21.1595 12.6157 20.9646 12.8099C20.7656 13.0071 20.671 13.3032 20.671 13.7021V19.298H21.6938V22.3709ZM37.1375 20.6047C35.3114 20.7701 33.5183 20.9456 31.7642 21.132C28.2552 21.5062 24.89 21.9219 21.6938 22.3709V19.298H22.7235V13.7021C22.7235 13.3032 22.6509 13.0071 22.4757 12.8099C22.3009 12.6132 22.0559 12.4878 21.7084 12.4878H21.6938V8.70035C23.7856 8.70236 25.4052 9.04961 26.562 9.68845C27.9994 10.5048 28.7158 11.8185 28.7158 13.653V20.1459C29.1773 20.0875 29.6392 20.0288 30.1055 19.9729V13.8738C30.1055 12.0421 30.7977 10.6798 32.2091 9.83752C33.4072 9.07907 35.044 8.70815 37.1375 8.70035V12.4878C36.8417 12.4878 36.5939 12.6132 36.3942 12.8099C36.1955 13.0071 36.0981 13.3032 36.0981 13.7021V19.2907L37.1375 19.1867V20.6047ZM53.31 17.9184V8.87258H59.2784V17.6097C59.8127 17.5885 60.3494 17.5613 60.8887 17.5391V13.653C60.8887 11.8434 61.6074 10.5323 63.0943 9.68845C64.1925 9.08159 65.7348 8.73913 67.6972 8.70236V12.4878C67.401 12.4878 67.1532 12.6132 66.9563 12.8099C66.7574 13.0071 66.6607 13.3032 66.6607 13.7021V17.3352L67.6972 17.3062V18.8785C56.8129 19.155 46.5164 19.7475 37.1375 20.6047V19.1867L38.1768 19.0845V13.7021C38.1768 13.3032 38.0801 13.0071 37.9056 12.8099C37.7326 12.6132 37.485 12.4878 37.1375 12.4878V8.70035L37.2128 8.69783C39.1689 8.69783 40.8031 9.14504 42.1415 10.012C43.4801 10.8289 44.1723 12.0421 44.1723 13.653V18.5504C44.5274 18.524 44.8817 18.492 45.2385 18.4653V8.87258H51.2286V18.0458C51.918 18.001 52.6128 17.9574 53.31 17.9184ZM67.6972 8.70236C67.8137 8.70035 67.9306 8.69783 68.0472 8.69783C70.1755 8.69783 71.7616 9.06975 72.8278 9.78817C74.0881 10.6045 74.7345 11.9945 74.7345 13.8738V17.166C75.9872 17.1463 77.2508 17.134 78.5235 17.1267V12.4878H75.8492V8.87258H78.5235V3.96857H84.5168V8.87258H87.7367V12.4878H84.5168V17.1267C86.0876 17.136 87.6475 17.1511 89.1964 17.1773V13.8738C89.1964 12.0421 89.9158 10.6798 91.325 9.83752C92.5226 9.08385 94.148 8.70966 96.2317 8.70035V12.4878C95.9565 12.4878 95.7115 12.6132 95.5128 12.8099C95.3131 13.0071 95.191 13.3032 95.191 13.7021V17.3017L96.2317 17.3301V18.8997C91.4458 18.7708 86.5494 18.703 81.5671 18.703C76.8597 18.703 72.2272 18.764 67.6972 18.8785V17.3062L68.7396 17.2805V13.7021C68.7396 13.3032 68.6399 13.0071 68.4677 12.8099C68.2924 12.6132 68.0472 12.4878 67.6972 12.4878V8.70236ZM96.2317 8.70035L96.3317 8.69783C98.2837 8.69783 99.921 9.14504 101.233 10.012C102.596 10.8289 103.264 12.0421 103.264 13.653V17.586C103.652 17.6026 104.041 17.62 104.43 17.6361V8.87258H110.422V9.68845C110.684 9.48222 111.027 9.29286 111.447 9.13547V12.5868C111.107 12.5868 110.842 12.6623 110.67 12.8346C110.495 13.0071 110.422 13.2788 110.422 13.653V17.9529L111.447 18.0183V19.5335C106.538 19.2547 101.451 19.0397 96.2317 18.8997V17.3301L97.2704 17.3604V13.7021C97.2704 13.3032 97.1956 13.0071 97.0226 12.8099C96.8509 12.6132 96.5764 12.4878 96.2317 12.4878V8.70035ZM122.73 7.53421H119.732V3.14918H122.73V7.53421ZM111.447 9.13547C111.586 9.08637 111.731 9.03777 111.885 8.99648C112.55 8.7978 113.293 8.69783 114.136 8.69783C115.401 8.69783 116.414 9.04507 117.231 9.74007C118.073 10.4074 118.472 11.2242 118.472 12.1937V18.5137C118.893 18.5456 119.314 18.5799 119.732 18.6159V8.87258H122.73V20.3204C119.089 20.0195 115.324 19.7568 111.447 19.5335V18.0183L112.476 18.0813V13.7021C112.476 12.959 112.154 12.5868 111.461 12.5868H111.447V9.13547ZM122.73 7.53421H125.727V3.14918H122.73V7.53421ZM122.73 8.87258H125.727V19.1618C127.7 19.359 129.626 19.5675 131.496 19.7888C133.814 18.6391 134.991 17.8083 134.991 17.3165V13.7021C134.991 13.3032 134.914 13.0071 134.741 12.8099C134.566 12.6132 134.296 12.4878 133.95 12.4878C133.677 12.4878 133.429 12.6132 133.231 12.8099C133.034 13.0071 132.934 13.3032 132.934 13.7021V18.5308H127.138V13.653C127.138 11.8434 127.882 10.5323 129.342 9.68845C130.531 9.04507 132.167 8.69783 134.296 8.69783C136.424 8.69783 138.01 9.06975 139.075 9.78817C140.338 10.6045 140.982 11.9945 140.982 13.8738V21.0834C141.082 21.0975 141.181 21.1176 141.278 21.132C141.672 21.1924 142.06 21.2584 142.446 21.3213V3.14968H148.436V22.4195C154.631 23.6702 159.651 25.0882 163.197 26.6527C155.199 24.3987 144.275 22.5159 131.348 21.132C128.567 20.8354 125.689 20.5654 122.73 20.3204V8.87258Z" fill="#585666"/>
<path d="M105.924 40.6857L106.526 38.7568C106.667 38.2905 106.781 37.746 106.898 37.2898H106.918C107.036 37.746 107.167 38.2811 107.315 38.7548L107.933 40.6857H105.924ZM108.175 41.7637L108.884 43.9867H110.418L107.873 36.1536H106.05L103.541 43.9867H105.016L105.688 41.7637H108.175ZM98.8455 43.9867H100.274V36.1549H98.8455V43.9867ZM95.1726 39.6631H92.4054V40.7904H93.7929V42.7435C93.6051 42.8379 93.222 42.9061 92.7094 42.9061C91.0824 42.9061 89.9893 41.8473 89.9893 40.069C89.9893 38.2449 91.1622 37.2563 92.8358 37.2563C93.6622 37.2563 94.1835 37.4063 94.6143 37.5932L94.9296 36.4318C94.5675 36.2697 93.8141 36.07 92.8481 36.07C90.2557 36.07 88.4903 37.6645 88.4903 40.1392C88.4775 41.3245 88.8861 42.3597 89.5834 43.0202C90.3267 43.7291 91.3274 44.067 92.6535 44.067C93.6975 44.067 94.6717 43.8117 95.1726 43.6248V39.6631ZM81.4943 37.2454C81.6323 37.2094 81.9249 37.1752 82.3761 37.1752C83.3065 37.1752 83.9111 37.5715 83.9111 38.4317C83.9111 39.2108 83.3065 39.7243 82.3424 39.7243H81.4943V37.2454ZM80.0783 43.9867H81.4943V40.7652H82.2159C83.029 40.7904 83.4017 41.1155 83.6215 42.1381C83.8431 43.1124 84.027 43.7512 84.1441 43.9867H85.6214C85.456 43.6832 85.247 42.778 85.0042 41.8002C84.8078 41.0453 84.4701 40.4988 83.9111 40.2898V40.2558C84.6426 39.9882 85.3303 39.3032 85.3303 38.293C85.3303 37.6274 85.0863 37.0808 84.6542 36.7237C84.1325 36.279 83.3672 36.0974 82.2379 36.0974C81.4119 36.0974 80.6102 36.1654 80.0783 36.2578V43.9867ZM76.2647 39.3498H73.3135V37.324H76.4394V36.1536H71.8857V43.9867H76.6144V42.8112H73.3135V40.5112H76.2647V39.3498ZM63.1338 43.9867V41.1863C63.1338 39.8935 63.1232 38.859 63.0625 37.8513L63.0968 37.8362C63.4828 38.7208 64.0051 39.6852 64.5057 40.5323L66.5511 43.9867H68.0257V36.1536H66.7014V38.8857C66.7014 40.0813 66.738 41.0939 66.8306 42.1381H66.8059C66.4466 41.29 65.9918 40.3848 65.4698 39.5127L63.4493 36.1536H61.8216V43.9867H63.1338ZM58.008 39.3498H55.0567V37.324H58.1827V36.1536H53.6285V43.9867H58.3577V42.8112H55.0567V40.5112H58.008V39.3498Z" fill="#585666"/>
<path d="M125.727 3.1492H119.732V7.53422H125.727V3.1492Z" fill="#585666"/>
</g>
</svg>
