<svg
  width="23"
  height="23"
  viewBox="0 0 23 23"
  fill="none"
  xmlns="http://www.w3.org/2000/svg"
>
  <path
    fill-rule="evenodd"
    clip-rule="evenodd"
    d="M11.5 2.125C9.0136 2.125 6.62903 3.11272 4.87087 4.87087C3.11272 6.62903 2.125 9.0136 2.125 11.5C2.125 12.7311 2.36749 13.9502 2.83863 15.0877C3.30977 16.2251 4.00032 17.2586 4.87087 18.1291C5.74142 18.9997 6.77492 19.6902 7.91234 20.1614C9.04977 20.6325 10.2689 20.875 11.5 20.875C12.7311 20.875 13.9502 20.6325 15.0877 20.1614C16.2251 19.6902 17.2586 18.9997 18.1291 18.1291C18.9997 17.2586 19.6902 16.2251 20.1614 15.0877C20.6325 13.9502 20.875 12.7311 20.875 11.5C20.875 9.0136 19.8873 6.62903 18.1291 4.87087C16.371 3.11272 13.9864 2.125 11.5 2.125ZM3.81021 3.81021C5.84967 1.77076 8.61577 0.625 11.5 0.625C14.3842 0.625 17.1503 1.77076 19.1898 3.81021C21.2292 5.84967 22.375 8.61577 22.375 11.5C22.375 12.9281 22.0937 14.3423 21.5472 15.6617C21.0007 16.9811 20.1996 18.1799 19.1898 19.1898C18.1799 20.1996 16.9811 21.0007 15.6617 21.5472C14.3423 22.0937 12.9281 22.375 11.5 22.375C10.0719 22.375 8.65773 22.0937 7.33832 21.5472C6.0189 21.0007 4.82005 20.1996 3.81021 19.1898C2.80038 18.1799 1.99933 16.9811 1.45281 15.6617C0.90629 14.3423 0.625 12.9281 0.625 11.5C0.625 8.61577 1.77076 5.84967 3.81021 3.81021ZM14.3799 5.89432C12.7797 4.49386 10.22 4.49393 8.61989 5.89453C8.30822 6.16735 8.27671 6.64118 8.54953 6.95286C8.82235 7.26453 9.29618 7.29604 9.60786 7.02322C10.6424 6.11764 12.3576 6.11764 13.3921 7.02322L13.3924 7.02343C14.3692 7.87773 14.3692 9.21602 13.3924 10.0703L13.3901 10.0723C13.2169 10.2251 13.0196 10.3536 12.806 10.4569L12.8053 10.4572C11.8975 10.8971 10.7511 11.8058 10.7511 13.1875V14.0312C10.7511 14.4455 11.0869 14.7812 11.5011 14.7812C11.9153 14.7812 12.2511 14.4455 12.2511 14.0312V13.1875C12.2511 12.7063 12.6907 12.1797 13.4588 11.8074M14.3799 5.89432C16.0396 7.34592 16.04 9.74632 14.3811 11.1984C14.0978 11.4479 13.7848 11.6498 13.4589 11.8073M10.75 17.4062C10.75 16.992 11.0858 16.6562 11.5 16.6562H11.509C11.9232 16.6562 12.259 16.992 12.259 17.4062V17.4152C12.259 17.8295 11.9232 18.1652 11.509 18.1652H11.5C11.0858 18.1652 10.75 17.8295 10.75 17.4152V17.4062Z"
    fill="#4285F4"
  />
</svg>
