<svg width="20" height="20" viewBox="0 0 20 20" fill="none" xmlns="http://www.w3.org/2000/svg">
<path d="M9.48004 1.24897C9.52234 1.1458 9.59436 1.05755 9.68696 0.99543C9.77956 0.933314 9.88854 0.900146 10 0.900146C10.1115 0.900146 10.2205 0.933314 10.3131 0.99543C10.4057 1.05755 10.4777 1.1458 10.52 1.24897L12.645 6.35997C12.6848 6.45561 12.7502 6.53841 12.834 6.59928C12.9178 6.66015 13.0168 6.69672 13.12 6.70497L18.638 7.14697C19.137 7.18697 19.339 7.80997 18.959 8.13497L14.755 11.737C14.6765 11.8042 14.618 11.8917 14.5859 11.9899C14.5538 12.0882 14.5493 12.1934 14.573 12.294L15.858 17.679C15.8839 17.787 15.8771 17.9003 15.8386 18.0045C15.8001 18.1087 15.7316 18.1991 15.6417 18.2644C15.5518 18.3297 15.4446 18.3668 15.3336 18.3712C15.2226 18.3756 15.1128 18.347 15.018 18.289L10.293 15.404C10.2048 15.3501 10.1034 15.3215 10 15.3215C9.89665 15.3215 9.79527 15.3501 9.70704 15.404L4.98204 18.29C4.8873 18.348 4.7775 18.3766 4.6665 18.3722C4.5555 18.3678 4.44829 18.3307 4.35841 18.2654C4.26853 18.2001 4.2 18.1097 4.16149 18.0055C4.12298 17.9013 4.11621 17.788 4.14204 17.68L5.42704 12.294C5.45087 12.1934 5.44649 12.0881 5.41438 11.9899C5.38227 11.8916 5.32368 11.8041 5.24504 11.737L1.04104 8.13497C0.956385 8.0628 0.895049 7.96714 0.864802 7.86009C0.834555 7.75304 0.836757 7.63942 0.871131 7.53362C0.905505 7.42782 0.970502 7.33461 1.05789 7.26578C1.14528 7.19695 1.25114 7.1556 1.36204 7.14697L6.88004 6.70497C6.98329 6.69672 7.08226 6.66015 7.16607 6.59928C7.24987 6.53841 7.31526 6.45561 7.35504 6.35997L9.48004 1.24897Z" stroke="#717171" stroke-width="1.5" stroke-linecap="round" stroke-linejoin="round"/>
</svg>
