<svg width="33" height="33" viewBox="0 0 33 33" fill="none" xmlns="http://www.w3.org/2000/svg">
<rect x="0.5" y="0.5" width="32" height="32" rx="16" stroke="#4285F4" stroke-width="2" stroke-linecap="round" stroke-linejoin="round"/>
<path d="M19.0305 10.7346C19.0305 10.0999 19.2513 9.48498 19.655 8.99523C20.0587 8.50549 20.6201 8.17141 21.2431 8.05027C21.8662 7.92914 22.5119 8.02849 23.0697 8.33129C23.6275 8.63409 24.0626 9.12149 24.3004 9.70993C24.5382 10.2984 24.564 10.9512 24.3732 11.5565C24.1824 12.1619 23.787 12.682 23.2548 13.0278C22.7225 13.3735 22.0866 13.5234 21.456 13.4516C20.8254 13.3799 20.2393 13.091 19.7984 12.6346L12.4347 16.3175C12.4804 16.6045 12.4804 16.8968 12.4347 17.1838L19.7995 20.8667C20.2536 20.397 20.8609 20.1054 21.5114 20.0447C22.162 19.984 22.8127 20.1583 23.3459 20.5359C23.8791 20.9135 24.2595 21.4696 24.4181 22.1034C24.5768 22.7372 24.5033 23.4068 24.2109 23.9911C23.9186 24.5754 23.4267 25.0357 22.8243 25.2887C22.2219 25.5417 21.5488 25.5707 20.9269 25.3703C20.305 25.17 19.7754 24.7536 19.434 24.1966C19.0925 23.6395 18.9618 22.9786 19.0655 22.3335L11.7008 18.6506C11.3221 19.0423 10.8351 19.312 10.3022 19.4251C9.76923 19.5382 9.21466 19.4895 8.70958 19.2853C8.2045 19.0811 7.77192 18.7307 7.46733 18.279C7.16273 17.8273 7 17.2949 7 16.7501C7 16.2053 7.16273 15.6729 7.46733 15.2212C7.77192 14.7695 8.2045 14.4191 8.70958 14.2149C9.21466 14.0107 9.76923 13.962 10.3022 14.0751C10.8351 14.1882 11.3221 14.4579 11.7008 14.8496L19.0655 11.1677C19.0425 11.0245 19.0307 10.8797 19.0305 10.7346Z" fill="#4285F4" stroke-width="2"/>
</svg>