<svg width="18" height="21" viewBox="0 0 18 21" fill="none" xmlns="http://www.w3.org/2000/svg">
<path d="M16.5 13V10.375C16.5 9.47989 16.1444 8.62145 15.5115 7.98851C14.8786 7.35558 14.0201 7 13.125 7H11.625C11.3266 7 11.0405 6.88147 10.8295 6.6705C10.6185 6.45952 10.5 6.17337 10.5 5.875V4.375C10.5 3.47989 10.1444 2.62145 9.51149 1.98851C8.87855 1.35558 8.02011 1 7.125 1H5.25M10.481 14.481L12 16M10.481 14.481C10.7248 14.2372 10.9183 13.948 11.0502 13.6295C11.1821 13.3111 11.25 12.9697 11.25 12.625C11.25 11.9288 10.9734 11.2611 10.4812 10.7688C9.98887 10.2766 9.32119 10 8.625 10C7.92881 10 7.26113 10.2766 6.76884 10.7688C6.27656 11.2611 6 11.9288 6 12.625C6 12.9697 6.0679 13.3111 6.19982 13.6295C6.33173 13.948 6.52509 14.2374 6.76884 14.4812C7.0126 14.7249 7.30198 14.9183 7.62046 15.0502C7.93894 15.1821 8.28028 15.25 8.625 15.25C8.96972 15.25 9.31106 15.1821 9.62954 15.0502C9.94802 14.9183 10.2372 14.7248 10.481 14.481ZM7.5 1H2.625C2.004 1 1.5 1.504 1.5 2.125V18.625C1.5 19.246 2.004 19.75 2.625 19.75H15.375C15.996 19.75 16.5 19.246 16.5 18.625V10C16.5 7.61305 15.5518 5.32387 13.864 3.63604C12.1761 1.94821 9.88695 1 7.5 1Z" stroke="#717171" stroke-width="1.5" stroke-linecap="round" stroke-linejoin="round"/>
</svg>
